<?xml version="1.0" standalone="no"?>
<!DOCTYPE svg PUBLIC "-//W3C//DTD SVG 20010904//EN"
 "http://www.w3.org/TR/2001/REC-SVG-20010904/DTD/svg10.dtd">
<svg version="1.0" xmlns="http://www.w3.org/2000/svg"
 width="977.000000pt" height="630.000000pt" viewBox="0 0 977.000000 630.000000"
 preserveAspectRatio="xMidYMid meet">

<g transform="translate(0.000000,630.000000) scale(0.100000,-0.100000)"
fill="#000000" stroke="none">
<path d="M0 3150 l0 -3150 4885 0 4885 0 0 3150 0 3150 -4885 0 -4885 0 0
-3150z m9750 0 l0 -3130 -4865 0 -4865 0 0 3130 0 3130 4865 0 4865 0 0 -3130z"/>
<path d="M3913 5153 c20 -2 54 -2 75 0 20 2 3 4 -38 4 -41 0 -58 -2 -37 -4z"/>
<path d="M4070 5142 c0 -18 -9 -19 -122 -15 l-123 4 -40 -49 c-22 -28 -47 -52
-56 -55 -10 -2 -19 -21 -24 -43 -4 -22 -9 -49 -11 -61 -3 -13 -1 -23 3 -23 5
0 44 36 88 80 l80 80 67 0 c39 0 72 5 80 13 22 21 87 47 118 47 24 0 60 21 60
36 0 2 -27 4 -60 4 -52 0 -60 -3 -60 -18z"/>
<path d="M4207 5141 c-3 -13 3 -22 20 -30 33 -15 33 -15 33 19 0 25 -4 30 -24
30 -15 0 -26 -7 -29 -19z"/>
<path d="M4280 5124 c0 -26 7 -43 25 -60 l25 -23 0 28 c0 57 -12 91 -31 91
-15 0 -19 -7 -19 -36z"/>
<path d="M4369 5155 c-4 -14 -6 -21 -13 -37 -14 -32 15 -250 35 -256 5 -2 9
-30 9 -62 0 -32 4 -61 10 -65 15 -9 0 -35 -21 -35 -21 0 -25 21 -9 49 5 11 6
37 1 62 l-8 44 -17 -40 c-9 -22 -26 -50 -38 -62 -17 -18 -19 -25 -8 -38 7 -8
10 -21 7 -30 -5 -12 16 -15 145 -17 l151 -3 -2 -185 c-1 -157 1 -181 12 -160
15 30 52 34 52 5 0 -12 -8 -21 -20 -23 -43 -8 -45 -18 -45 -185 l0 -161 41 39
c22 22 45 50 50 63 11 29 49 30 49 2 0 -11 -9 -24 -19 -28 -10 -4 -42 -29 -70
-55 l-51 -48 0 -221 0 -221 60 7 c56 7 60 6 60 -14 0 -15 -6 -20 -25 -20 -14
0 -25 4 -25 10 0 5 -16 9 -35 8 -34 -1 -35 -3 -35 -40 l0 -38 75 0 75 0 50 50
50 50 0 170 c0 120 -4 180 -13 203 -16 37 -12 57 11 57 15 0 17 -20 14 -222
l-3 -223 -47 -47 -47 -47 -82 -2 -83 -3 0 -32 c0 -38 14 -44 113 -44 l68 0 65
64 64 64 0 149 c0 96 -4 153 -11 160 -15 15 -3 33 21 33 24 0 36 -18 21 -33
-7 -7 -11 -65 -11 -163 l0 -152 -67 -66 -68 -66 -97 0 -98 0 0 -613 c0 -687 0
-693 67 -774 56 -68 121 -98 213 -97 63 0 83 4 127 28 29 16 60 37 69 47 16
18 16 19 1 19 -16 0 -24 30 -11 42 3 4 5 94 4 201 l-1 195 46 45 c39 39 45 51
45 86 0 23 -4 41 -8 41 -5 0 -37 -29 -71 -65 l-62 -66 4 -142 c2 -78 6 -151 8
-162 3 -15 -2 -21 -18 -23 -17 -3 -23 2 -23 17 0 11 5 23 10 26 6 4 10 67 10
157 l0 150 75 73 75 73 0 60 c0 51 -3 60 -20 65 -11 3 -20 14 -20 24 0 11 -13
32 -30 46 -16 15 -30 31 -30 36 0 4 23 29 50 55 l50 47 0 109 c0 106 -1 110
-21 110 -19 0 -21 4 -16 37 7 41 -12 73 -45 73 -19 0 -26 34 -9 44 12 8 42 -4
36 -14 -3 -4 3 -14 12 -21 9 -8 22 -27 29 -44 13 -30 13 -30 14 21 0 48 -2 52
-50 95 l-50 44 0 73 c0 72 -1 75 -40 119 l-40 46 0 131 c0 72 -4 137 -9 145
-12 19 -3 41 18 41 14 0 16 -16 12 -155 l-3 -154 41 -43 c40 -42 41 -45 41
-113 0 -72 7 -87 58 -129 l22 -19 0 61 c0 55 -2 60 -20 55 -22 -6 -40 28 -40
76 0 15 -5 32 -11 38 -15 15 -4 43 16 43 20 0 31 -28 16 -43 -26 -26 -7 -67
30 -67 5 0 9 244 9 604 0 636 1 627 -43 604 -23 -12 -47 -3 -47 17 0 24 -12
18 -57 -29 l-43 -44 0 -191 c0 -136 4 -197 13 -211 10 -17 9 -22 -3 -30 -8 -5
-19 -8 -24 -7 -6 2 -9 94 -7 223 l2 219 52 53 51 52 116 0 115 0 85 85 c47 46
90 85 96 85 7 0 14 9 17 19 4 16 11 18 50 14 43 -5 47 -3 79 33 18 21 43 48
56 60 30 31 28 47 -9 78 -33 28 -77 34 -109 14 -22 -14 -27 -11 -32 17 -3 21
-1 22 90 12 24 -3 51 -12 61 -21 26 -24 29 -20 17 19 l-11 35 -242 0 -243 0 0
-25 c0 -18 -5 -25 -20 -25 -13 0 -25 -11 -33 -27 -14 -34 -26 -43 -44 -36 -21
8 -15 41 9 49 25 8 47 32 48 52 0 7 -14 12 -40 12 -35 0 -39 -3 -37 -22 1 -15
-4 -23 -18 -26 -20 -4 -65 -40 -65 -52 0 -4 14 -22 31 -39 29 -30 35 -32 87
-29 45 2 57 0 57 -12 0 -12 -12 -14 -60 -12 -56 3 -63 7 -105 48 l-45 45 38
33 c72 65 69 66 -226 66 -204 0 -264 -3 -265 -12 -1 -7 -5 -28 -8 -46 -6 -28
-3 -34 15 -39 15 -4 21 -12 19 -27 -4 -28 -38 -35 -38 -7 0 11 -4 23 -10 26
-5 3 -10 19 -10 35 0 16 -4 31 -10 35 -5 3 -7 12 -3 20 3 10 -2 15 -16 15 -19
0 -21 -5 -21 -73 0 -73 0 -73 43 -115 23 -23 48 -42 55 -42 7 0 12 -9 12 -20
0 -13 -7 -20 -20 -20 -12 0 -20 7 -20 16 0 9 -20 35 -45 58 l-45 42 0 77 c0
70 -2 77 -20 77 -11 0 -21 -2 -21 -5z m534 -70 c4 -8 2 -17 -3 -20 -24 -15 -6
-53 51 -113 66 -68 69 -69 174 -51 15 3 21 -2 23 -19 3 -22 2 -22 -70 -16
l-73 6 -67 66 c-51 50 -68 73 -68 94 0 15 -4 29 -10 33 -14 9 0 35 20 35 10 0
20 -7 23 -15z m359 -107 l-4 -123 -36 -37 c-35 -37 -38 -38 -110 -38 l-74 0
-64 -64 -64 -63 0 -145 c0 -99 4 -148 12 -156 10 -9 8 -16 -5 -29 -23 -24 -42
-4 -32 34 4 15 8 92 9 171 l3 142 67 65 67 65 72 0 c68 1 74 2 110 36 l38 35
-2 90 c-1 49 -5 92 -10 95 -17 10 -10 44 9 44 17 0 18 -10 14 -122z m-459 62
c3 -11 1 -23 -4 -26 -5 -3 -9 -27 -9 -53 0 -37 6 -54 25 -75 24 -26 25 -33 25
-140 0 -69 4 -116 11 -123 14 -14 3 -33 -19 -33 -16 0 -17 12 -14 132 4 131 4
132 -21 152 -21 18 -25 31 -29 98 -3 43 -3 80 0 83 12 11 30 4 35 -15z m627
-36 c0 -8 -8 -14 -18 -14 -10 0 -29 -10 -41 -21 -20 -19 -22 -28 -16 -66 6
-42 4 -47 -33 -87 -21 -23 -41 -48 -43 -55 -6 -18 -41 -2 -37 18 2 9 12 17 22
19 10 2 32 16 48 30 27 24 29 32 26 79 -2 42 1 56 20 77 12 15 22 30 22 35 0
14 24 19 38 8 6 -5 12 -16 12 -23z m-731 -62 c-11 -18 -10 -24 5 -41 10 -11
28 -21 40 -23 29 -4 29 -42 -1 -46 -15 -2 -23 2 -23 11 0 8 -9 22 -20 32 -11
10 -20 29 -20 42 0 12 -4 23 -10 23 -14 0 -12 37 3 43 6 3 18 -1 25 -8 11 -10
11 -16 1 -33z m-239 -46 c5 -13 15 -28 22 -33 18 -11 39 -81 27 -89 -5 -3 -18
-2 -30 1 -14 5 -18 12 -13 23 15 37 9 57 -23 72 -37 17 -45 50 -13 50 12 0 24
-10 30 -24z m465 -6 c-3 -5 -1 -11 5 -15 25 -15 -7 -131 -33 -122 -22 7 -20
45 2 52 31 9 28 53 -4 65 -28 10 -31 20 -13 38 13 13 52 -3 43 -18z m-261 -26
c9 -3 16 -14 16 -23 0 -9 18 -35 40 -56 39 -39 40 -40 40 -112 0 -71 1 -74 40
-115 22 -24 40 -45 40 -48 0 -3 2 -63 4 -135 2 -71 5 -141 7 -155 3 -20 0 -25
-16 -25 -16 0 -19 5 -16 25 2 14 5 81 8 150 l4 126 -40 46 c-39 44 -41 49 -41
115 0 66 -1 69 -44 116 -24 26 -51 47 -60 47 -16 0 -22 30 -9 43 8 8 8 8 27 1z
m19 -164 c4 -19 12 -48 17 -64 11 -33 -2 -58 -26 -49 -16 6 -19 34 -4 49 14
14 1 52 -21 59 -28 9 -25 47 3 43 16 -2 25 -13 31 -38z m85 -492 c-2 -17 -9
-22 -23 -20 -26 5 -29 8 -22 27 4 8 16 15 27 15 16 0 21 -5 18 -22z m72 -88
c0 -11 -5 -22 -11 -26 -6 -3 -8 -20 -5 -38 5 -27 1 -37 -25 -62 -17 -16 -35
-39 -40 -52 -6 -15 -16 -22 -27 -20 -24 5 -22 41 4 48 30 7 74 63 74 94 0 14
-6 35 -12 46 -11 17 -10 22 1 29 20 13 41 2 41 -19z m180 -625 c10 -12 10 -19
2 -27 -8 -8 -12 -51 -12 -118 0 -101 1 -108 25 -130 21 -20 25 -33 25 -80 0
-31 5 -61 11 -67 15 -15 3 -33 -21 -33 -17 0 -18 6 -13 70 6 66 4 73 -20 98
-24 26 -25 33 -27 157 -2 72 -2 133 -1 138 2 12 18 8 31 -8z m-65 -180 c0 -13
-8 -21 -22 -23 -34 -5 -31 -49 3 -62 28 -11 30 -43 2 -48 -17 -3 -48 47 -48
78 0 9 7 31 16 49 18 35 49 39 49 6z m-115 -83 c0 -10 27 -44 59 -76 40 -39
61 -69 64 -90 3 -17 7 -40 9 -51 2 -14 -3 -21 -20 -23 -22 -3 -23 -1 -17 45 6
48 6 48 -50 106 -31 31 -62 57 -69 57 -7 0 -25 -13 -41 -30 -26 -27 -27 -33
-21 -85 6 -50 5 -55 -14 -55 -18 0 -19 5 -14 63 4 40 13 69 25 83 27 29 24 34
-17 22 -40 -11 -61 0 -51 26 7 18 33 21 42 6 10 -17 75 -12 75 5 0 8 9 15 20
15 13 0 20 -7 20 -18z m-20 -287 c6 -8 9 -19 5 -25 -8 -13 -42 -13 -50 0 -11
19 -67 2 -100 -30 l-33 -32 23 -24 c12 -13 32 -24 44 -24 14 0 21 -6 21 -19 0
-38 -22 -33 -66 14 -43 47 -44 49 -27 69 47 53 67 66 104 66 21 0 41 5 44 10
9 14 21 12 35 -5z m206 -116 c3 -6 1 -16 -5 -22 -22 -22 -10 -52 49 -113 33
-34 60 -60 60 -57 0 3 7 0 15 -7 22 -18 19 -50 -5 -50 -12 0 -20 7 -20 17 0 9
-29 47 -65 84 -36 37 -65 74 -65 82 0 8 -3 29 -6 46 -6 27 -4 31 14 31 12 0
24 -5 28 -11z m-99 -45 c3 -8 1 -20 -6 -27 -6 -6 -11 -32 -11 -58 0 -36 6 -52
24 -71 23 -22 25 -33 29 -138 2 -63 6 -124 8 -135 3 -15 -2 -21 -20 -23 -22
-3 -23 -1 -18 27 4 18 10 75 13 127 l7 95 -31 32 c-26 27 -30 39 -27 77 1 24
-2 52 -8 61 -6 9 -7 24 -4 33 8 20 36 21 44 0z m-97 -83 c0 -9 -5 -22 -12 -29
-9 -9 -7 -16 7 -32 10 -11 23 -20 30 -20 17 0 34 -21 28 -36 -7 -18 -43 -18
-43 -1 0 8 -9 22 -20 32 -11 10 -20 28 -20 40 0 11 -5 26 -12 33 -8 8 -8 15 1
26 15 18 41 10 41 -13z m214 -73 c19 -38 20 -65 4 -101 -9 -18 -20 -27 -32
-25 -29 4 -31 27 -3 37 14 6 28 15 32 20 10 18 -5 51 -24 51 -25 0 -32 10 -20
31 14 27 25 24 43 -13z m-246 -43 c2 -11 21 -37 43 -57 36 -35 39 -42 40 -95
1 -32 0 -64 -1 -72 -1 -7 18 -34 42 -58 l43 -44 -2 -139 c-1 -87 2 -140 9
-140 5 0 8 -10 6 -22 -2 -15 -10 -23 -23 -23 -15 0 -19 5 -16 20 2 11 6 79 8
152 l4 132 -40 44 c-39 43 -41 47 -41 111 0 63 -3 71 -36 112 -20 24 -47 47
-60 50 -36 9 -31 59 5 52 9 -2 17 -12 19 -23z m7 -148 c3 -23 11 -52 17 -65
14 -27 -1 -48 -26 -39 -17 7 -22 37 -6 37 6 0 10 14 10 30 0 23 -4 30 -20 30
-25 0 -36 25 -20 45 19 23 38 7 45 -38z"/>
<path d="M5240 5080 c0 -5 5 -10 10 -10 6 0 10 5 10 10 0 6 -4 10 -10 10 -5 0
-10 -4 -10 -10z"/>
<path d="M5015 2630 c-3 -5 -1 -10 4 -10 6 0 11 5 11 10 0 6 -2 10 -4 10 -3 0
-8 -4 -11 -10z"/>
<path d="M5735 5151 c3 -5 0 -22 -7 -36 -10 -23 -10 -29 5 -40 23 -16 22 -55
0 -55 -10 0 -44 -29 -76 -65 -46 -51 -64 -65 -87 -65 -16 0 -32 -4 -35 -10 -3
-5 -16 -10 -28 -10 -14 0 -53 -31 -109 -87 l-88 -88 -93 -6 -92 -5 98 -2 98
-2 55 60 c31 33 61 57 66 54 6 -4 -13 -30 -41 -58 -28 -28 -51 -55 -51 -59 0
-4 90 -7 200 -7 173 0 200 2 200 15 0 9 10 19 23 24 12 5 38 27 56 50 31 37
38 41 80 41 116 0 157 35 148 125 -7 66 -14 80 -32 65 -16 -14 -35 -5 -35 16
0 8 -3 14 -7 14 -20 0 -93 83 -93 105 0 24 -17 35 -56 35 -22 0 -24 -4 -24
-44 0 -40 4 -46 57 -92 74 -64 85 -75 79 -81 -6 -6 -41 21 -102 77 -36 33 -44
48 -50 90 -6 47 -8 50 -36 50 -16 0 -27 -4 -23 -9z m75 -192 c0 -6 6 -9 14 -6
15 6 30 -19 20 -34 -10 -17 -39 -9 -49 13 -6 12 -14 23 -20 25 -16 4 -36 -12
-39 -33 -2 -11 -12 -20 -24 -22 -30 -5 -29 30 1 51 25 18 97 22 97 6z m208
-80 c3 -18 -24 -33 -41 -22 -6 4 -56 6 -112 4 -97 -2 -101 -3 -127 -31 -24
-26 -35 -30 -83 -30 -30 0 -55 -4 -55 -10 0 -14 -37 -13 -46 1 -3 6 1 18 10
27 12 13 19 14 28 4 22 -22 84 -14 119 15 34 29 90 41 202 42 33 1 57 5 57 12
0 17 44 6 48 -12z m-240 -107 c2 -14 -2 -22 -12 -22 -8 0 -21 -9 -29 -20 -14
-21 -57 -40 -88 -40 -26 0 -25 36 1 43 11 3 20 1 20 -4 0 -5 9 -9 21 -9 13 0
25 11 34 33 22 53 47 62 53 19z"/>
<path d="M5910 5122 c0 -21 74 -85 103 -89 14 -2 16 0 8 15 -23 38 -83 92
-103 92 -5 0 -8 -8 -8 -18z"/>
<path d="M3792 4958 c-48 -48 -88 -92 -90 -97 -5 -15 38 -98 66 -127 26 -25
95 -63 117 -64 13 0 15 11 21 132 4 67 10 100 20 109 8 6 14 21 14 33 0 12 9
39 20 61 11 22 20 39 20 40 0 0 -23 0 -51 0 -51 0 -51 0 -137 -87z"/>
<path d="M4510 4910 c0 -5 5 -10 10 -10 6 0 10 5 10 10 0 6 -4 10 -10 10 -5 0
-10 -4 -10 -10z"/>
<path d="M3934 4795 c3 -55 5 -106 7 -112 2 -10 43 -13 166 -13 159 0 163 1
163 21 0 16 -4 20 -17 14 -32 -12 -107 -22 -148 -19 -31 1 -49 10 -81 40 -56
54 -66 69 -80 122 -13 45 -13 43 -10 -53z"/>
<path d="M5890 4783 c-20 -7 -90 -85 -90 -100 0 -25 110 -10 148 20 9 7 9 13
1 23 -18 22 -49 17 -49 -6 0 -25 -27 -37 -43 -21 -20 20 5 43 63 58 48 12 56
12 65 -1 10 -12 13 -12 23 5 7 10 12 21 12 24 0 7 -111 5 -130 -2z"/>
<path d="M4129 4487 c-84 -31 -140 -85 -177 -170 -16 -36 -15 -89 1 -107 10
-12 9 -12 -5 -1 -17 13 -18 -11 -18 -467 l0 -481 88 -4 87 -3 -87 -2 -88 -2 0
-597 c0 -329 3 -608 6 -620 6 -20 13 -23 58 -23 48 0 56 4 99 44 l47 43 3 194
2 194 3 -195 2 -196 -48 -47 c-45 -44 -51 -47 -100 -47 -61 0 -64 -7 -24 -71
49 -77 126 -129 192 -129 30 0 42 21 20 35 -15 9 -12 48 6 84 16 32 38 37 40
10 1 -9 -1 -10 -3 -1 -7 20 -26 13 -20 -8 3 -13 0 -20 -9 -20 -9 0 -14 -11
-14 -29 0 -22 6 -31 23 -37 12 -4 25 -11 28 -17 4 -5 19 -7 34 -3 19 5 24 10
17 19 -15 19 -21 277 -5 277 18 0 27 -20 14 -33 -17 -17 -15 -233 3 -240 16
-6 84 62 115 117 21 37 22 57 5 118 -4 13 -1 16 10 12 14 -6 16 100 13 1097
l-2 1104 -22 48 c-19 40 -26 47 -43 42 -30 -10 -44 4 -25 25 13 15 14 19 1 29
-8 7 -25 9 -40 5 -21 -5 -26 -3 -25 12 0 11 3 14 6 7 5 -14 23 -18 23 -5 0 13
-64 40 -111 46 -26 4 -59 1 -80 -7z m131 -92 l-24 -25 35 -36 c33 -35 35 -36
92 -30 50 5 57 4 56 -12 0 -10 -3 -12 -6 -4 -2 6 -9 12 -14 12 -6 0 -8 -4 -5
-9 3 -5 -16 -6 -42 -4 -37 4 -55 13 -84 41 -21 20 -38 39 -38 43 0 12 42 60
48 54 3 -3 -5 -16 -18 -30z m-136 0 c-4 -8 -1 -15 5 -15 6 0 11 8 11 17 0 9 3
14 6 10 3 -3 3 -15 -1 -27 -5 -17 -10 -19 -21 -9 -16 13 -19 39 -4 39 5 0 7
-7 4 -15z m-82 -101 c-3 -62 -1 -72 22 -99 24 -28 26 -37 28 -142 1 -62 2
-121 2 -130 1 -23 -28 -23 -30 0 -1 12 -1 13 3 2 13 -41 18 -3 15 112 -4 119
-5 130 -28 154 -19 20 -24 36 -24 75 0 28 -5 55 -11 61 -14 14 -3 46 14 40 8
-3 11 -24 9 -73z m264 -94 c31 0 54 5 56 12 6 16 38 2 38 -17 0 -8 -5 -15 -11
-15 -5 0 -8 4 -4 9 3 5 1 12 -5 16 -5 3 -10 0 -10 -7 0 -10 -15 -12 -57 -10
-56 3 -60 6 -120 65 -35 34 -63 65 -63 68 0 4 28 -22 62 -57 60 -63 62 -64
114 -64z m-169 -2 c-3 -8 -6 -5 -6 6 -1 11 2 17 5 13 3 -3 4 -12 1 -19z m33 2
c0 -11 5 -20 10 -20 6 0 9 -15 9 -32 -1 -28 -2 -29 -6 -8 -2 14 -10 30 -17 35
-14 11 -17 45 -4 45 4 0 8 -9 8 -20z m-164 -25 c3 -8 3 -19 0 -24 -10 -16 -36
-1 -36 20 0 22 28 26 36 4z m4 -195 c0 -75 0 -76 40 -115 l40 -39 0 -136 c0
-95 4 -140 13 -149 10 -10 9 -11 -5 -6 -19 7 -25 -10 -8 -18 6 -3 5 -4 -2 -3
-9 2 -11 41 -9 153 l3 152 -41 44 c-40 44 -41 45 -41 119 0 68 -2 77 -25 94
-13 10 -27 25 -30 34 -4 8 10 -1 29 -19 35 -34 36 -37 36 -111z m156 105 c-3
-8 -12 -15 -21 -15 -21 0 -19 38 3 42 19 4 26 -6 18 -27z m192 16 l-77 -6 -61
-60 -61 -60 3 -166 c2 -110 0 -162 -7 -156 -6 6 -9 71 -7 166 l3 156 67 68 66
67 76 -2 75 -1 -77 -6z m-8 -81 c0 -13 -7 -20 -20 -20 -12 0 -39 -17 -61 -37
l-40 -37 3 -208 c2 -166 0 -208 -10 -208 -7 0 -10 -5 -7 -10 4 -6 11 -8 16 -5
5 4 9 1 9 -4 0 -6 -6 -11 -14 -11 -17 0 -29 27 -16 35 6 4 10 90 10 207 l0
200 53 58 c55 62 77 73 77 40z m-360 -114 c0 -8 2 -20 3 -28 2 -7 2 -10 0 -5
-3 4 -13 7 -24 7 -12 0 -19 7 -19 20 0 13 7 20 20 20 11 0 20 -6 20 -14z m26
-120 c-2 -6 -5 -3 -5 7 -1 22 -21 23 -21 0 0 -9 -2 -14 -5 -11 -3 3 -2 19 1
37 l7 32 14 -27 c7 -15 12 -32 9 -38z m-3 -343 c-20 -8 -15 -26 5 -18 11 4 13
3 7 -3 -5 -6 -26 -13 -45 -16 -26 -5 -30 -4 -14 3 12 5 24 16 27 25 4 9 12 16
19 15 10 0 10 -2 1 -6z m137 -13 c0 -13 -7 -20 -18 -20 -10 0 -36 -18 -57 -40
-21 -22 -42 -40 -47 -40 -4 0 13 19 37 43 25 23 45 50 45 60 0 10 8 17 20 17
13 0 20 -7 20 -20z m120 -30 c0 -13 -7 -20 -18 -20 -24 0 -32 8 -25 26 8 22
43 17 43 -6z m-88 -23 c-12 -13 -22 -31 -22 -40 0 -22 -29 -22 -37 0 -6 15 2
23 24 25 5 0 14 9 21 19 7 11 18 19 24 19 6 0 2 -10 -10 -23z m-184 -54 c-10
-2 -26 -2 -35 0 -10 3 -2 5 17 5 19 0 27 -2 18 -5z m342 -23 c0 -21 -24 -28
-35 -10 -3 6 -27 10 -52 10 -34 0 -55 -7 -79 -25 -45 -34 -52 -31 -11 4 26 24
45 31 88 34 30 2 62 4 72 5 11 1 17 -5 17 -18z m50 -94 c0 -23 -16 -27 -45
-14 -24 11 -25 13 -8 19 30 12 53 10 53 -5z m-300 -27 c0 -29 58 -27 70 4 5
12 9 16 9 10 1 -7 5 -13 11 -13 5 0 6 7 3 17 -4 11 -3 14 5 9 30 -18 -13 -56
-63 -56 -32 0 -75 23 -74 40 0 10 2 11 6 3 2 -7 9 -13 14 -13 4 0 5 7 2 17 -4
11 -3 14 5 9 7 -4 12 -16 12 -27z m158 -33 c-60 -56 -67 -68 -71 -107 l-4 -44
-1 46 c-2 44 0 48 62 107 35 34 68 62 73 62 4 0 -22 -29 -59 -64z m-168 -164
c0 -72 1 -73 40 -112 23 -22 37 -40 32 -40 -6 0 -26 18 -46 40 -34 38 -36 43
-36 113 l0 73 -55 54 c-30 30 -55 59 -55 64 0 6 27 -19 60 -54 l59 -65 1 -73z
m304 91 c19 -21 33 -39 31 -41 -2 -3 -16 10 -30 27 -15 17 -31 31 -37 31 -5 0
-23 -14 -40 -30 -28 -29 -30 -35 -26 -86 3 -30 1 -57 -4 -60 -4 -3 -5 2 -2 10
3 9 2 16 -4 16 -6 0 -13 -6 -15 -12 -4 -10 -6 -10 -6 -1 -1 6 4 15 9 18 6 3
10 25 10 48 0 34 6 48 37 79 20 21 38 38 39 38 2 0 19 -17 38 -37z m-413 -25
c16 -20 18 -41 19 -140 l0 -117 87 -90 c48 -50 95 -91 105 -91 12 0 18 -7 17
-22 -1 -18 -2 -19 -6 -5 -2 9 -9 15 -14 11 -5 -3 -7 -10 -4 -15 4 -5 1 -9 -4
-9 -6 0 -11 8 -11 18 0 9 -40 58 -90 107 l-90 90 0 119 c0 109 -2 122 -22 143
-12 13 -18 23 -14 23 4 0 16 -10 27 -22z m409 -83 c5 -14 17 -28 25 -31 8 -4
14 -14 13 -23 -2 -9 3 -15 10 -13 6 1 12 -3 12 -9 0 -21 -35 -3 -38 20 -3 15
-14 27 -33 34 -28 11 -36 26 -22 40 12 13 24 7 33 -18z m-192 -8 c2 -12 -3
-17 -17 -17 -12 0 -21 6 -21 13 0 31 32 34 38 4z m202 -125 c0 -13 -3 -12 -16
4 -15 19 -15 19 -11 -3 3 -15 1 -20 -9 -16 -17 6 -18 15 -3 30 15 15 39 5 39
-15z m-305 -14 c0 -9 13 -30 29 -47 22 -23 40 -31 75 -34 l46 -3 -46 -2 c-40
-2 -51 2 -80 31 -19 19 -41 37 -49 40 -12 4 -11 6 3 6 9 1 17 6 17 12 0 6 -7
9 -15 5 -8 -3 -15 -1 -15 5 0 6 8 9 18 7 9 -2 17 -11 17 -20z m213 -117 c27
-15 29 -41 2 -41 -13 0 -20 7 -20 18 0 11 -9 27 -20 37 -11 10 -20 23 -20 29
1 6 9 2 18 -10 10 -12 28 -26 40 -33z m-250 -94 c2 -12 -3 -17 -17 -17 -12 0
-21 6 -21 13 0 31 32 34 38 4z m-5 -87 c20 0 37 4 37 9 0 14 78 10 84 -5 6
-16 -20 -39 -29 -24 -3 5 1 10 10 10 9 0 13 5 10 11 -5 7 -13 5 -24 -5 -28
-26 -133 -8 -166 28 -36 39 -31 45 8 8 25 -24 42 -32 70 -32z m248 -156 c-1
-76 -5 -141 -7 -143 -2 -2 -4 50 -4 115 0 76 -4 124 -11 131 -14 14 -4 46 13
41 9 -3 11 -42 9 -144z m-58 -11 c-10 -3 -13 -44 -13 -156 l0 -151 -67 -68
c-64 -65 -69 -68 -113 -67 l-45 2 47 6 c40 6 56 15 108 68 l61 61 -3 155 c-2
100 1 155 7 154 6 -1 9 5 7 13 -3 13 -1 13 10 1 10 -11 10 -14 1 -18z m114
-221 c16 -14 21 -34 25 -109 4 -73 3 -93 -8 -93 -19 0 -28 20 -15 33 6 6 11
40 11 75 0 59 -2 66 -40 111 -22 26 -40 51 -40 56 0 5 11 -6 24 -23 13 -18 32
-40 43 -50z m-342 -42 c0 -8 -8 -16 -17 -18 -13 -2 -18 3 -18 18 0 15 5 20 18
18 9 -2 17 -10 17 -18z"/>
<path d="M4020 4345 c0 -8 5 -15 10 -15 6 0 10 7 10 15 0 8 -4 15 -10 15 -5 0
-10 -7 -10 -15z"/>
<path d="M3980 4170 c0 -5 5 -10 10 -10 6 0 10 5 10 10 0 6 -4 10 -10 10 -5 0
-10 -4 -10 -10z"/>
<path d="M4140 4090 c0 -5 5 -10 10 -10 6 0 10 5 10 10 0 6 -4 10 -10 10 -5 0
-10 -4 -10 -10z"/>
<path d="M4320 4020 c0 -5 5 -10 10 -10 6 0 10 5 10 10 0 6 -4 10 -10 10 -5 0
-10 -4 -10 -10z"/>
<path d="M3960 3900 c0 -5 5 -10 10 -10 6 0 10 5 10 10 0 6 -4 10 -10 10 -5 0
-10 -4 -10 -10z"/>
<path d="M4120 3430 c0 -5 5 -10 10 -10 6 0 10 5 10 10 0 6 -4 10 -10 10 -5 0
-10 -4 -10 -10z"/>
<path d="M4240 3400 c0 -5 5 -10 10 -10 6 0 10 5 10 10 0 6 -4 10 -10 10 -5 0
-10 -4 -10 -10z"/>
<path d="M4135 3340 c3 -5 8 -10 11 -10 2 0 4 5 4 10 0 6 -5 10 -11 10 -5 0
-7 -4 -4 -10z"/>
<path d="M4310 3300 c0 -5 5 -10 10 -10 6 0 10 5 10 10 0 6 -4 10 -10 10 -5 0
-10 -4 -10 -10z"/>
<path d="M4360 3200 c0 -5 5 -10 10 -10 6 0 10 5 10 10 0 6 -4 10 -10 10 -5 0
-10 -4 -10 -10z"/>
<path d="M4350 2970 c0 -5 5 -10 10 -10 6 0 10 5 10 10 0 6 -4 10 -10 10 -5 0
-10 -4 -10 -10z"/>
<path d="M4160 2960 c0 -5 5 -10 10 -10 6 0 10 5 10 10 0 6 -4 10 -10 10 -5 0
-10 -4 -10 -10z"/>
<path d="M4290 2680 c0 -5 5 -10 10 -10 6 0 10 5 10 10 0 6 -4 10 -10 10 -5 0
-10 -4 -10 -10z"/>
<path d="M4020 2610 c0 -5 5 -10 10 -10 6 0 10 5 10 10 0 6 -4 10 -10 10 -5 0
-10 -4 -10 -10z"/>
<path d="M4090 2520 c0 -5 5 -10 11 -10 5 0 7 5 4 10 -3 6 -8 10 -11 10 -2 0
-4 -4 -4 -10z"/>
<path d="M4270 2490 c0 -5 5 -10 10 -10 6 0 10 5 10 10 0 6 -4 10 -10 10 -5 0
-10 -4 -10 -10z"/>
<path d="M4350 1950 c0 -5 5 -10 10 -10 6 0 10 5 10 10 0 6 -4 10 -10 10 -5 0
-10 -4 -10 -10z"/>
<path d="M3980 2090 c0 -5 5 -10 10 -10 6 0 10 5 10 10 0 6 -4 10 -10 10 -5 0
-10 -4 -10 -10z"/>
<path d="M4355 4390 c-3 -5 1 -10 9 -10 9 0 16 5 16 10 0 6 -4 10 -9 10 -6 0
-13 -4 -16 -10z"/>
<path d="M5128 2824 l-36 -37 31 -28 c17 -16 35 -29 39 -29 5 0 8 29 8 65 0
36 -1 65 -3 65 -1 0 -19 -16 -39 -36z"/>
<path d="M5127 2368 l-27 -33 2 -194 c3 -208 11 -236 44 -159 15 35 19 76 22
231 2 103 0 187 -5 187 -4 0 -20 -15 -36 -32z"/>
<path d="M4280 2089 c0 -5 5 -7 10 -4 6 3 10 8 10 11 0 2 -4 4 -10 4 -5 0 -10
-5 -10 -11z"/>
<path d="M4442 2050 c0 -14 2 -19 5 -12 2 6 2 18 0 25 -3 6 -5 1 -5 -13z"/>
<path d="M4210 1810 c0 -5 5 -10 10 -10 6 0 10 5 10 10 0 6 -4 10 -10 10 -5 0
-10 -4 -10 -10z"/>
<path d="M2410 1400 l0 -220 35 0 35 0 0 220 0 220 -35 0 -35 0 0 -220z"/>
<path d="M2570 1600 c-7 -12 -9 -92 -8 -217 l3 -198 37 -3 37 -3 3 136 3 136
55 -72 c30 -40 77 -101 104 -136 46 -61 50 -63 92 -63 l44 0 0 220 0 220 -40
0 -39 0 -3 -152 -3 -153 -118 153 c-121 155 -145 174 -167 132z"/>
<path d="M2990 1575 l0 -44 73 -3 72 -3 3 -172 2 -173 35 0 35 0 2 173 3 172
73 3 72 3 0 44 0 45 -185 0 -185 0 0 -45z"/>
<path d="M3431 1593 c-20 -25 -21 -36 -19 -217 l3 -191 183 -3 182 -2 0 25 0
25 -131 0 c-72 0 -139 5 -150 10 -14 8 -19 21 -19 50 l0 40 115 0 115 0 0 50
0 50 -115 0 -115 0 0 40 c0 29 5 42 19 50 11 5 78 10 150 10 l131 0 0 45 0 45
-164 0 -165 0 -20 -27z"/>
<path d="M3842 1403 l3 -218 183 -3 182 -2 0 24 0 24 -140 4 c-112 2 -143 6
-150 18 -5 8 -10 95 -10 193 l0 177 -35 0 -35 0 2 -217z"/>
<path d="M4252 1403 l3 -218 183 -3 182 -2 0 25 0 25 -134 0 c-109 0 -138 3
-150 16 -13 13 -16 45 -16 195 l0 179 -35 0 -35 0 2 -217z"/>
<path d="M4666 1605 c-7 -19 -6 -393 1 -411 3 -8 20 -14 39 -14 l34 0 0 220 0
220 -34 0 c-21 0 -36 -6 -40 -15z"/>
<path d="M4810 1400 l0 -220 184 0 184 0 6 31 c3 17 6 74 6 125 l0 94 -115 0
-115 0 0 -50 0 -50 75 0 75 0 0 -45 c0 -42 -2 -44 -32 -50 -18 -3 -67 -5 -108
-3 l-75 3 -3 148 -3 147 88 0 c107 0 133 -6 133 -31 0 -15 7 -19 40 -19 38 0
40 2 40 29 0 37 -13 73 -35 94 -14 15 -41 17 -181 17 l-164 0 0 -220z"/>
<path d="M5247 1613 c-4 -3 -7 -24 -7 -45 l0 -38 75 0 75 0 0 -169 0 -169 35
-4 36 -4 -2 170 -1 171 74 5 73 5 3 43 3 42 -179 0 c-98 0 -182 -3 -185 -7z"/>
<path d="M5698 1607 c-10 -8 -22 -26 -28 -41 -12 -31 -14 -345 -2 -363 5 -9
58 -13 182 -14 170 -1 175 0 178 20 3 20 -1 21 -145 23 l-148 3 -3 48 -3 47
110 0 111 0 0 50 0 50 -111 0 -110 0 3 48 3 47 148 3 148 3 -3 42 -3 42 -155
2 c-116 2 -159 -1 -172 -10z"/>
<path d="M6090 1403 l0 -218 177 3 c125 2 180 7 185 15 4 7 8 27 8 45 0 30 -2
32 -34 32 -28 0 -35 -4 -38 -22 -3 -22 -7 -23 -115 -26 l-113 -3 0 151 0 151
113 -3 c108 -3 112 -4 115 -25 3 -19 10 -23 38 -23 33 0 34 1 34 38 0 35 -20
77 -44 94 -6 4 -82 8 -168 8 l-158 0 0 -217z"/>
<path d="M6540 1403 l0 -218 35 0 35 0 0 75 0 75 112 -2 113 -2 5 -73 c5 -69
6 -73 30 -74 14 -1 28 4 32 10 9 13 10 351 2 395 -5 26 -11 31 -35 31 l-28 0
-3 -96 -3 -95 -112 -2 -112 -2 -3 95 -3 95 -32 3 -33 3 0 -218z"/>
<path d="M2394 1105 c-4 -8 -4 -22 0 -30 5 -13 266 -15 2266 -15 l2260 0 0 30
0 30 -2260 0 c-2000 0 -2261 -2 -2266 -15z"/>
</g>
</svg>
